<?xml version="1.0" encoding="UTF-8" standalone="no"?><!DOCTYPE svg PUBLIC "-//W3C//DTD SVG 1.1//EN" "http://www.w3.org/Graphics/SVG/1.1/DTD/svg11.dtd"><svg width="100%" height="100%" viewBox="0 0 512 512" version="1.1" xmlns="http://www.w3.org/2000/svg" xmlns:xlink="http://www.w3.org/1999/xlink" xml:space="preserve" xmlns:serif="http://www.serif.com/" style="fill-rule:evenodd;clip-rule:evenodd;stroke-linejoin:round;stroke-miterlimit:2;"><rect id="Artboard2" x="0" y="0" width="512" height="512" style="fill:none;"/><clipPath id="_clip1"><rect id="Artboard21" serif:id="Artboard2" x="0" y="0" width="512" height="512"/></clipPath><g clip-path="url(#_clip1)"><circle cx="256" cy="256" r="256" style="fill:#058574;"/><path d="M416,190.247l-17.136,-0c-0.797,-13.018 -2.723,-23.844 -5.778,-32.479c-3.055,-8.634 -7.372,-15.541 -12.952,-20.722c-5.579,-5.18 -12.353,-8.767 -20.323,-10.76c-7.97,-1.992 -17.269,-2.988 -27.896,-2.988c-10.361,-0 -18.663,0.199 -24.906,0.597c-6.244,0.399 -11.026,1.063 -14.346,1.993c-3.321,0.93 -5.513,2.192 -6.576,3.786c-1.063,1.594 -1.594,3.586 -1.594,5.977l0,208.817c0,8.502 0.598,15.808 1.793,21.918c1.196,6.11 3.653,11.092 7.373,14.944c3.719,3.852 9.165,6.775 16.339,8.767c7.173,1.993 16.604,3.122 28.293,3.387l0,15.941l-166.973,-0l-0,-15.941c11.955,-0.265 21.519,-1.394 28.692,-3.387c7.173,-1.992 12.686,-4.915 16.538,-8.767c3.852,-3.852 6.376,-8.834 7.572,-14.944c1.195,-6.11 1.793,-13.416 1.793,-21.918l-0,-208.817c-0,-2.391 -0.465,-4.383 -1.395,-5.977c-0.93,-1.594 -2.856,-2.856 -5.778,-3.786c-2.923,-0.93 -7.107,-1.594 -12.553,-1.993c-5.446,-0.398 -12.553,-0.597 -21.32,-0.597c-9.564,-0 -18.73,0.465 -27.497,1.394c-8.767,0.93 -16.472,3.587 -23.113,7.971c-6.642,4.383 -12.022,11.025 -16.14,19.925c-4.118,8.9 -6.31,21.453 -6.575,37.659l-15.542,-0l3.985,-87.672l312.03,0l3.985,87.672Z" style="fill:#fff;fill-rule:nonzero;"/></g></svg>